<?xml version="1.0" encoding="utf-8"?>
<!-- Generator: Adobe Illustrator 16.0.0, SVG Export Plug-In . SVG Version: 6.00 Build 0)  -->
<!DOCTYPE svg PUBLIC "-//W3C//DTD SVG 1.1//EN" "http://www.w3.org/Graphics/SVG/1.1/DTD/svg11.dtd">
<svg version="1.1" id="Layer_1" xmlns="http://www.w3.org/2000/svg" xmlns:xlink="http://www.w3.org/1999/xlink" x="0px" y="0px"
	 width="64px" height="64px" viewBox="0 0 64 64" enable-background="new 0 0 64 64" xml:space="preserve">
<g id="axis-xhdpi" display="none">
	<path fill="#555555" d="M32.083,0.167c-17.626,0-31.917,14.291-31.917,31.916C0.167,49.711,14.458,64,32.083,64
		C49.711,64,64,49.711,64,32.082C64,14.457,49.711,0.167,32.083,0.167z M32.083,57.8C17.88,57.8,6.365,46.286,6.365,32.082
		c0-14.203,11.516-25.718,25.719-25.718S57.801,17.88,57.801,32.082C57.801,46.288,46.289,57.8,32.083,57.8z"/>
	<path id="pause-3-icon" fill="#00FF00" d="M29.973,46.103h-8.167V18.064h8.167V46.103z M43.357,46.103h-8.169V18.064h8.169V46.103z
		"/>
</g>
<polygon id="arrow-37-icon" display="none" points="32,16.811 53,47.189 11,47.189 "/>
<path id="fullscreen-icon" d="M20.576,51.915L24.653,56H8V39.347l4.085,4.078l6.67-6.671l8.491,8.492L20.576,51.915z M39.347,8
	l4.078,4.084l-6.534,6.534l8.491,8.491l6.534-6.534L56,24.653V8H39.347z M12.085,20.576L8,24.653V8h16.653l-4.078,4.084l6.67,6.67
	l-8.492,8.492L12.085,20.576z M56,39.347l-4.085,4.078l-6.533-6.534l-8.491,8.491l6.533,6.534L39.347,56H56V39.347z"/>
</svg>
