<?xml version="1.0" encoding="utf-8"?>
<!-- Generator: Adobe Illustrator 16.0.0, SVG Export Plug-In . SVG Version: 6.00 Build 0)  -->
<!DOCTYPE svg PUBLIC "-//W3C//DTD SVG 1.1//EN" "http://www.w3.org/Graphics/SVG/1.1/DTD/svg11.dtd">
<svg version="1.1" id="Layer_1" xmlns="http://www.w3.org/2000/svg" xmlns:xlink="http://www.w3.org/1999/xlink" x="0px" y="0px"
	 width="64.167px" height="63.667px" viewBox="0 0 64.167 63.667" enable-background="new 0 0 64.167 63.667" xml:space="preserve">
<g id="fullscreen-mdpi">
</g>
<g id="axis-mdpi">
</g>
<g id="screenshot-mdpi">
</g>
<g id="continue-mdpi">
</g>
<g id="restart-mdpi">
</g>
<g id="back-mdpi">
</g>
<g id="fullscreen-hdpi">
</g>
<g id="axis-hdpi">
</g>
<g id="screenshot-hdpi">
</g>
<g id="continue-hdpi">
</g>
<g id="restart-hdpi">
</g>
<g id="back-hdpi">
</g>
<g id="fullscreen-xhdpi">
</g>
<g id="axis-xhdpi">
	<path fill="#555555" d="M32,1C14.88,1,1,14.88,1,31.999c0,17.122,13.88,31,31,31c17.121,0,31-13.879,31-31C63,14.88,49.121,1,32,1z
		 M32,56.979c-13.796,0-24.98-11.185-24.98-24.98c0-13.795,11.185-24.98,24.98-24.98c13.794,0,24.979,11.186,24.979,24.98
		C56.979,45.796,45.796,56.979,32,56.979z"/>
	<path id="pause-3-icon" fill="#00FF00" d="M29.95,45.617h-7.932V18.384h7.932V45.617z M42.949,45.617h-7.934V18.384h7.934V45.617z"
		/>
</g>
<g id="screenshot-xhdpi">
</g>
<g id="continue-xhdpi">
</g>
<g id="restart-xhdpi">
</g>
<g id="back-xhdpi">
</g>
</svg>
