<?xml version="1.0" encoding="utf-8"?>
<!-- Generator: Adobe Illustrator 16.0.0, SVG Export Plug-In . SVG Version: 6.00 Build 0)  -->
<!DOCTYPE svg PUBLIC "-//W3C//DTD SVG 1.1//EN" "http://www.w3.org/Graphics/SVG/1.1/DTD/svg11.dtd">
<svg version="1.1" xmlns="http://www.w3.org/2000/svg" xmlns:xlink="http://www.w3.org/1999/xlink" x="0px" y="0px" width="64px"
	 height="64px" viewBox="0 0 64 64" enable-background="new 0 0 64 64" xml:space="preserve">
<g id="fullscreen-mdpi">
</g>
<g id="axis-mdpi">
</g>
<g id="screenshot-mdpi">
</g>
<g id="continue-mdpi">
</g>
<g id="restart-mdpi">
</g>
<g id="back-mdpi">
</g>
<g id="fullscreen-hdpi">
</g>
<g id="axis-hdpi">
</g>
<g id="screenshot-hdpi">
</g>
<g id="continue-hdpi">
</g>
<g id="restart-hdpi">
</g>
<g id="back-hdpi">
</g>
<g id="fullscreen-xhdpi">
</g>
<g id="axis-xhdpi">
	<path fill="#555555" d="M32,1C14.88,1,1,14.88,1,31.999C1,49.12,14.88,63,32,63s31-13.88,31-31.001C63,14.88,49.12,1,32,1z
		 M32,56.979c-13.796,0-24.98-11.184-24.98-24.98c0-13.795,11.185-24.98,24.98-24.98s24.979,11.186,24.979,24.98
		C56.979,45.796,45.796,56.979,32,56.979z"/>
	<text transform="matrix(1 0 0 1 19.2988 29.2036)" fill="#00FF00" font-family="Arial, sans-serif" font-weight="bold" font-size="15.6718">X</text>
	<text transform="matrix(1 0 0 1 34.9707 46.7944)" fill="#00FF00" font-family="Arial, sans-serif" font-weight="bold" font-size="15.6718">Y</text>
	<polygon fill="#0000FF" points="23.996,46.546 20.307,46.546 40.004,18.416 43.693,18.416 	"/>
</g>
<g id="screenshot-xhdpi">
</g>
<g id="continue-xhdpi">
</g>
<g id="restart-xhdpi">
</g>
<g id="back-xhdpi">
</g>
</svg>
