<?xml version="1.0" encoding="utf-8"?>
<!-- Generator: Adobe Illustrator 16.0.0, SVG Export Plug-In . SVG Version: 6.00 Build 0)  -->
<!DOCTYPE svg PUBLIC "-//W3C//DTD SVG 1.1//EN" "http://www.w3.org/Graphics/SVG/1.1/DTD/svg11.dtd">
<svg version="1.1" xmlns="http://www.w3.org/2000/svg" xmlns:xlink="http://www.w3.org/1999/xlink" x="0px" y="0px" width="64px"
	 height="64px" viewBox="0 0 64 64" enable-background="new 0 0 64 64" xml:space="preserve">
<g id="fullscreen-mdpi">
</g>
<g id="axis-mdpi">
</g>
<g id="screenshot-mdpi">
</g>
<g id="continue-mdpi">
</g>
<g id="restart-mdpi">
</g>
<g id="back-mdpi">
</g>
<g id="fullscreen-hdpi">
</g>
<g id="axis-hdpi">
</g>
<g id="screenshot-hdpi">
</g>
<g id="continue-hdpi">
</g>
<g id="restart-hdpi">
</g>
<g id="back-hdpi">
</g>
<g id="fullscreen-xhdpi">
</g>
<g id="axis-xhdpi">
</g>
<g id="screenshot-xhdpi">
	<path fill="#555555" d="M32,1C14.88,1,1,14.88,1,31.999C1,49.12,14.88,63,32,63s31-13.88,31-31.001C63,14.88,49.12,1,32,1z
		 M32,56.979c-13.796,0-24.98-11.184-24.98-24.98c0-13.795,11.185-24.98,24.98-24.98s24.979,11.186,24.979,24.98
		C56.979,45.796,45.796,56.979,32,56.979z"/>
	<path fill="#00FF00" d="M35.486,32.488c0,1.867-1.519,3.385-3.385,3.385c-1.868,0-3.388-1.518-3.388-3.385
		c0-1.867,1.52-3.385,3.388-3.385C33.968,29.103,35.486,30.622,35.486,32.488z"/>
	<path fill="#0000FF" d="M37.338,23.314v-2.832H26.662v2.832H17v18.204h30V23.314H37.338z M32.102,38.787
		c-3.475,0-6.299-2.825-6.299-6.298s2.824-6.153,6.299-6.153c3.472,0,6.298,2.68,6.298,6.153S35.573,38.787,32.102,38.787z"/>
</g>
<g id="continue-xhdpi">
</g>
<g id="restart-xhdpi">
</g>
<g id="back-xhdpi">
</g>
</svg>
