<?xml version="1.0" encoding="utf-8"?>
<!-- Generator: Adobe Illustrator 16.0.0, SVG Export Plug-In . SVG Version: 6.00 Build 0)  -->
<!DOCTYPE svg PUBLIC "-//W3C//DTD SVG 1.1//EN" "http://www.w3.org/Graphics/SVG/1.1/DTD/svg11.dtd">
<svg version="1.1" id="Layer_1" xmlns="http://www.w3.org/2000/svg" xmlns:xlink="http://www.w3.org/1999/xlink" x="0px" y="0px"
	 width="64px" height="64px" viewBox="0 0 64 64" enable-background="new 0 0 64 64" xml:space="preserve">
<g id="axis-xhdpi" display="none">
	<path display="inline" fill="#555555" d="M32.083,0.167c-17.626,0-31.917,14.291-31.917,31.916C0.167,49.711,14.458,64,32.083,64
		C49.711,64,64,49.711,64,32.082C64,14.457,49.711,0.167,32.083,0.167z M32.083,57.8C17.88,57.8,6.365,46.286,6.365,32.082
		c0-14.203,11.516-25.718,25.719-25.718S57.801,17.88,57.801,32.082C57.801,46.288,46.289,57.8,32.083,57.8z"/>
	<path id="pause-3-icon" display="inline" fill="#00FF00" d="M29.973,46.104h-8.167v-28.04h8.167V46.104z M43.357,46.104h-8.17
		v-28.04h8.17V46.104z"/>
</g>
<polygon id="arrow-37-icon" display="none" points="52.963,3.018 52.963,60.982 11.037,32 "/>
<rect x="0.037" display="none" fill="none" stroke="#000000" stroke-width="6" stroke-miterlimit="10" width="63.963" height="64"/>
<path id="audio-5-icon" d="M14.878,42.697H6.903c-2.136,0-3.867-1.729-3.867-3.866V25.165c0-2.135,1.731-3.866,3.867-3.866h7.976
	L14.878,42.697L14.878,42.697z M19.225,20.34v23.315l18.687,10.764V9.581L19.225,20.34z M60.964,37.92l-5.926-5.922l5.925-5.926
	l-3.186-3.184l-5.922,5.925l-5.927-5.925l-3.184,3.184l5.925,5.926l-5.925,5.926l3.183,3.184l5.928-5.927l5.925,5.927L60.964,37.92z
	"/>
</svg>
